# xmcd
#
# Track frame offsets: 
#        150
#        9322
#        26143
#        38145
#        51365
#        64433
#        76645
#        91242
#        100995
#        117791
#        141073
#        153503
#
# Disc length: 2172 seconds
#
# Revision: 0
# Processed by: cddbd v1.5.2PL0 Copyright (c) Steve Scherf et al.
# Submitted via: ExactAudioCopy v1.0b4
#
DISCID=93087a0c
DTITLE=Exception - The Exceptional Exception
DYEAR=1969
DGENRE=Blues Rock
TTITLE0=Jack Rabbit
TTITLE1=Hong Kong Blues
TTITLE2=Rock Bottom Cinder
TTITLE3=Woman Of The Green Lantern
TTITLE4=Dont Torture Your Mind
TTITLE5=Tailor Made Babe
TTITLE6=Pendulum
TTITLE7=Karen Train Blues
TTITLE8=Too Much In Love With A Bad Thing
TTITLE9=Mrs. Cocaine
TTITLE10=Bums Puzzle
TTITLE11=Keep The Motor Running
EXTD=
EXTT0=
EXTT1=
EXTT2=
EXTT3=
EXTT4=
EXTT5=
EXTT6=
EXTT7=
EXTT8=
EXTT9=
EXTT10=
EXTT11=
PLAYORDER=
